HIERARCHY
ROOT hip
{
	OFFSET 0.000000 0.000000 0.000000 
	CHANNELS 6 Xposition Yposition Zposition Xrotation Zrotation Yrotation
	JOINT abdomen
	{
		OFFSET 0.000000 3.402643 0.000000 
		CHANNELS 3 Xrotation Zrotation Yrotation
		JOINT chest
		{
			OFFSET 0.000000 8.438565 -0.680529 
			CHANNELS 3 Xrotation Zrotation Yrotation
			JOINT neck
			{
				OFFSET 0.000000 10.207942 -0.272212 
				CHANNELS 3 Xrotation Zrotation Yrotation
				JOINT head
				{
					OFFSET 0.000000 3.130431 0.000000 
					CHANNELS 3 Xrotation Zrotation Yrotation
					End Site
					{
						OFFSET 0.000000 3.130435 0.000000 
					}
				}
			}
			JOINT lCollar
			{
				OFFSET 3.470700 6.669187 -0.816635 
				CHANNELS 3 Yrotation Zrotation Xrotation
				JOINT lShldr
				{
					OFFSET 3.198488 0.000000 0.000000 
					CHANNELS 3 Zrotation Yrotation Xrotation
					JOINT lForeArm
					{
						OFFSET 10.139888 0.000000 0.000000 
						CHANNELS 3 Yrotation Zrotation Xrotation
						JOINT lHand
						{
							OFFSET 8.370511 0.000000 0.000000 
							CHANNELS 3 Zrotation Yrotation Xrotation
							End Site
							{
								OFFSET 4.083176 0.000000 0.000000 
							}
						}
					}
				}
			}
			JOINT rCollar
			{
				OFFSET -3.470700 6.669187 -0.816635 
				CHANNELS 3 Yrotation Zrotation Xrotation
				JOINT rShldr
				{
					OFFSET -3.198488 0.000000 0.000000 
					CHANNELS 3 Zrotation Yrotation Xrotation
					JOINT rForeArm
					{
						OFFSET -10.139888 0.000000 0.000000 
						CHANNELS 3 Yrotation Zrotation Xrotation
						JOINT rHand
						{
							OFFSET -8.370511 0.000000 0.000000 
							CHANNELS 3 Zrotation Yrotation Xrotation
							End Site
							{
								OFFSET -4.083176 0.000000 0.000000 
							}
						}
					}
				}
			}
		}
	}
	JOINT lThigh
	{
		OFFSET 5.308129 -1.633274 1.361059 
		CHANNELS 3 Xrotation Zrotation Yrotation
		JOINT lShin
		{
			OFFSET -2.041588 -20.007561 0.000000 
			CHANNELS 3 Xrotation Zrotation Yrotation
			JOINT lFoot
			{
				OFFSET 0.000000 -19.190928 -1.224953 
				CHANNELS 3 Xrotation Yrotation Zrotation
				End Site
				{
					OFFSET 0.000000 -2.449906 4.627600 
				}
			}
		}
	}
	JOINT rThigh
	{
		OFFSET -5.308129 -1.633274 1.361059 
		CHANNELS 3 Xrotation Zrotation Yrotation
		JOINT rShin
		{
			OFFSET 2.041588 -20.007561 0.000000 
			CHANNELS 3 Xrotation Zrotation Yrotation
			JOINT rFoot
			{
				OFFSET 0.000000 -19.190928 -1.224953 
				CHANNELS 3 Xrotation Yrotation Zrotation
				End Site
				{
					OFFSET 0.000000 -2.449906 4.627600 
				}
			}
		}
	}
}
MOTION
Frames: 6
Frame Time: 0.011111
24.243868 47.667908 -132.238022 5.332662 3.581436 0.089450 20.557543 -4.020104 -0.712357 -24.796627 3.186345 0.158948 -9.184515 -1.118304 -0.881820 20.008266 4.527009 -0.906089 -7.198545 -2.255300 -0.324897 -65.767166 -34.750679 30.529221 -53.677147 8.447369 9.660108 8.524705 12.647240 -34.407604 5.113256 1.510366 0.237230 75.503067 5.811842 -24.387817 39.430454 -4.543496 4.195257 -8.533279 -12.636986 12.640772 3.158307 -2.592447 2.659566 20.830120 -5.772903 -3.637120 -23.680243 -12.277503 -8.063798 -37.759094 -6.259064 0.593579 44.265148 4.299644 6.571771 -19.200821 6.435424 5.078321 
24.266972 47.552383 -131.468628 5.597386 3.661495 0.486670 20.238220 -4.144465 -0.970527 -24.845566 3.192321 0.097120 -8.513546 -0.826803 -1.060277 19.080664 4.340347 -1.246936 -7.198545 -2.255300 -0.324897 -65.189705 -34.990517 31.544371 -55.387650 8.730505 10.384053 8.524705 12.647240 -33.108780 5.113256 1.510366 0.237230 75.895111 5.429971 -29.060976 38.795216 -4.306602 3.976145 -8.533279 -12.636986 8.109522 4.838589 -2.682235 1.678321 18.519255 -5.854392 -3.294432 -19.939785 -14.429594 -8.431049 -38.541168 -6.434838 0.464343 41.266075 4.544042 6.228576 -18.656197 6.434611 5.034065 
24.272255 47.458313 -130.717712 5.871623 3.739565 0.963969 19.988176 -4.287324 -1.271240 -24.875116 3.256643 0.032442 -8.453006 -0.635368 -1.042195 18.905039 4.243577 -1.198276 -7.198545 -2.255300 -0.324897 -64.744720 -35.564751 32.123775 -56.595551 8.906400 10.904792 8.524705 12.647240 -32.073620 5.113256 1.510366 0.237230 76.252731 5.191876 -34.252113 38.564213 -4.227925 3.902158 -8.533279 -12.636986 1.791164 6.589633 -2.762419 1.974691 16.339161 -5.908461 -3.007162 -18.954716 -15.050222 -8.485823 -39.242264 -6.600444 0.413546 38.299622 4.769156 5.881721 -17.781080 6.480071 5.001200 
24.268623 47.414082 -129.973099 6.127132 3.992947 1.509037 19.792925 -4.642745 -1.679917 -24.846010 3.329375 -0.049045 -8.824711 -0.567120 -1.065735 19.444904 4.413661 -1.195593 -7.198545 -2.255300 -0.324897 -64.065025 -36.316036 33.228184 -57.825497 9.056417 11.438313 8.524705 12.647240 -30.501354 5.113256 1.510366 0.237230 76.605583 5.188965 -39.582935 38.161556 -4.071484 3.768961 -8.533279 -12.636986 -3.833836 8.513995 -2.987550 2.478001 13.779539 -5.965574 -2.645511 -17.413715 -15.756645 -8.459166 -39.946976 -7.020857 0.575161 35.334717 4.983829 5.523789 -16.982529 6.594463 5.014032 
24.274893 47.470524 -129.218887 6.450869 4.225187 2.010689 19.487316 -4.897740 -2.207596 -24.787947 3.527015 -0.166272 -9.060830 -0.469490 -0.546583 18.697321 4.722303 -0.111950 -7.198545 -2.255300 -0.324897 -63.560455 -37.169991 33.770580 -58.792526 9.160011 11.864152 8.524705 12.647240 -29.544325 5.113256 1.510366 0.237230 76.731361 5.015399 -43.822071 37.689457 -3.886931 3.607682 -8.533279 -12.636986 -7.749852 10.540064 -3.249110 3.224046 10.991384 -5.995476 -2.239291 -16.328703 -15.852681 -8.231173 -40.710136 -7.421496 1.054080 32.570644 5.159833 5.184061 -16.497713 6.578321 4.965815 
24.296019 47.537529 -128.451157 6.751619 4.141840 2.565213 19.185747 -4.693730 -2.637278 -24.749382 3.702777 -0.322076 -9.063384 -0.605615 -0.593973 18.596539 4.702371 -0.247058 -7.198545 -2.255300 -0.324897 -63.336201 -37.972027 33.623329 -59.505421 9.227112 12.178886 8.524705 12.647240 -29.056042 5.113256 1.510366 0.237230 76.752342 4.624851 -46.875004 37.408760 -3.777278 3.508965 -8.533279 -12.636986 -10.513523 12.893322 -3.171211 2.253013 7.457360 -6.026401 -1.736059 -15.985836 -14.339516 -7.579539 -41.353455 -7.606569 1.067853 30.176079 5.307334 4.874125 -16.091730 6.735117 4.986340 
